<svg xmlns="http://www.w3.org/2000/svg" viewBox="0 0 400 296.83"><g id="Capa_2" data-name="Capa 2"><g id="Capa_4" data-name="Capa 4"><path fill="#FFFFFF" d="M343.82,68.34C371.53,55.57,389.29,27,400,0,400,0,343,63.47,200,63.47S0,0,0,0C10.71,27,28.47,55.57,56.18,68.34,65.2,72.5,87,80.67,80.77,94c-5.6,11.89-31.57,1.86-40.17-1.86l-2.78-1.26,6.09,13.69c41,20.54,86.16,77,86.16,77h0C174.36,239.88,200,296.83,200,296.83s25.64-56.95,69.93-115.32h0s45.13-56.44,86.16-77l6.09-13.69-2.78,1.26c-8.6,3.72-34.57,13.75-40.17,1.86C313,80.67,334.8,72.5,343.82,68.34ZM200,218.42,138.46,122c23.08,7.47,61.54,6.22,61.54,6.22s38.46,1.25,61.54-6.22Z"/></g></g></svg>